<?xml version="1.0" encoding="UTF-8"?>
<svg id="_Слой_1" data-name="Слой_1" xmlns="http://www.w3.org/2000/svg" version="1.1" viewBox="0 0 140 101.9">
  <!-- Generator: Adobe Illustrator 29.8.3, SVG Export Plug-In . SVG Version: 2.1.1 Build 3)  -->
  <defs>
    <style>
      .st0 {
        fill: none;
        stroke: #f3ca2f;
        stroke-linecap: round;
        stroke-linejoin: round;
        stroke-width: 4px;
      }
    </style>
  </defs>
  <g id="Layer_2">
    <g id="VECTOR">
      <rect class="st0" x="36" y="2" width="102" height="69.9" rx="15.5" ry="15.5"/>
      <path class="st0" d="M120.9,72.4c-1.1,7.7-7.8,13.4-15.6,13.4H34.7c-8.6,0-15.6-6.8-15.7-15.4V31.3c0-.4,0-.9,0-1.3.8-8,7.6-14.1,15.6-14"/>
      <path class="st0" d="M104,85.8c-.8,8.1-7.6,14.2-15.7,14.1H17.7c-8.6,0-15.6-6.8-15.7-15.3,0,0,0,0,0,0v-39.2c0-8.6,7.1-15.5,15.7-15.4,0,0,0,0,0,0h1.3c0,.4,0,.9,0,1.3v39.2c0,8.6,7.1,15.4,15.7,15.4h69.3Z"/>
      <polyline class="st0" points="36 46.9 78 22.7 104 71.7"/>
      <path class="st0" d="M91,47.2s16.4-15.2,17.2-17.2l29.8,20"/>
      <ellipse class="st0" cx="97.2" cy="15.9" rx="6.8" ry="6.7"/>
    </g>
  </g>
</svg>