<svg xmlns="http://www.w3.org/2000/svg" viewBox="0 0 140 59.66"><defs><style>.Graphic-Style-5{fill:none;stroke:#fff;stroke-linecap:round;stroke-linejoin:round;stroke-width:4px;}</style></defs><g id="Layer_2" data-name="Layer 2"><g id="VECTOR"><rect class="Graphic-Style-5" x="45.73" y="8.98" width="48.55" height="21.93" rx="8.31"/><polygon class="Graphic-Style-5" points="80.13 41.32 59.87 41.32 55.7 30.91 84.3 30.91 80.13 41.32"/><path class="Graphic-Style-5" d="M81.68,36.71s12.74,1.5,15,8.4a64.87,64.87,0,0,1,2.89,12.55"/><line class="Graphic-Style-5" x1="98.03" y1="57.66" x2="105.25" y2="57.66"/><path class="Graphic-Style-5" d="M58.32,36.71s-12.74,1.5-15,8.4a64.87,64.87,0,0,0-2.89,12.55"/><line class="Graphic-Style-5" x1="41.97" y1="57.66" x2="34.75" y2="57.66"/><line class="Graphic-Style-5" x1="94.58" y1="19.95" x2="115.82" y2="19.95"/><line class="Graphic-Style-5" x1="101.81" y1="2" x2="138" y2="2"/><rect class="Graphic-Style-5" x="115.82" y="5.98" width="9.82" height="20.16" rx="4.91"/><line class="Graphic-Style-5" x1="45.42" y1="19.95" x2="24.18" y2="19.95"/><line class="Graphic-Style-5" x1="38.19" y1="2" x2="2" y2="2"/><rect class="Graphic-Style-5" x="14.35" y="5.98" width="9.82" height="20.16" rx="4.91" transform="translate(38.53 32.12) rotate(-180)"/><line class="Graphic-Style-5" x1="75.35" y1="21.89" x2="76.94" y2="21.89"/></g></g></svg>